#!OML:ASF E:\Steps\Project 1\Capture day 1\Session 2\Subject.ASF
:FULLY-SPECIFIED
:DEGREES
320
root 9.11731 21.9121 27.8372 -152.265 2.76784 178.104
lowerback -19.7238 -1.84259 -3.07695
upperback -3.32012 -1.08806 -1.11051
thorax 7.48393 -0.330492 0.307079
lowerneck -2.25552 -1.72694 0.355313
upperneck -4.69413 -2.10225 1.70217
head -1.04643 -1.00828 0.465826
rclavicle -4.96962e-015 -7.95139e-015
rhumerus -46.6052 16.1222 -90.1299
rradius 66.3738
rwrist -12.3193
rhand -9.90827 -54.285
rfingers 7.12502
rthumb 16.072 -83.6384
lclavicle -4.96962e-015 -7.95139e-015
lhumerus -37.8748 -24.3094 84.7004
lradius 61.5433
lwrist 5.27303
lhand -28.9376 -19.8528
lfingers 7.12502
lthumb -2.29148 10.1146
rfemur -30.6538 4.81351 15.0551
rtibia 23.2056
rfoot 25.0226 -9.86632
rtoes -30.1715
lfemur -32.5169 -0.408084 -20.4198
ltibia 24.6422
lfoot 26.6618 13.1561
ltoes -40.4761
321
root 9.11716 22.107 27.7856 -153.079 2.97677 177.986
lowerback -18.9547 -1.83411 -3.35986
upperback -2.87915 -1.12893 -1.10249
thorax 7.55475 -0.399927 0.46932
lowerneck -2.33364 -1.73001 0.575337
upperneck -4.75342 -2.1075 1.60337
head -1.05493 -1.01152 0.399077
rclavicle -9.54166e-015 -2.46493e-014
rhumerus -45.9869 16.6009 -90.1105
rradius 65.0333
rwrist -12.3512
rhand -10.3254 -53.6286
rfingers 7.12502
rthumb 15.6703 -83.014
lclavicle -9.54166e-015 -2.46493e-014
lhumerus -37.6177 -23.7909 84.6231
lradius 61.0837
lwrist 5.77075
lhand -29.0268 -19.5629
lfingers 7.12502
lthumb -2.37759 10.4036
rfemur -30.5693 5.21586 14.8066
rtibia 24.1378
rfoot 25.4126 -8.93153
rtoes -28.3988
lfemur -32.1662 -0.422531 -20.6496
ltibia 25.2726
lfoot 26.3756 13.0254
ltoes -37.1098
322
root 9.11364 22.2914 27.7263 -153.723 2.93045 177.824
lowerback -18.4553 -1.94675 -3.6339
upperback -2.44297 -1.3122 -1.02465
thorax 7.77106 -0.534752 0.662126
lowerneck -2.41161 -1.70616 0.811945
upperneck -4.83124 -2.077 1.48586
head -1.06986 -0.996893 0.324073
rclavicle -3.27995e-015 -2.78299e-015
rhumerus -45.3736 17.1105 -89.9944
rradius 63.7023
rwrist -12.2868
rhand -9.24988 -57.1234
rfingers 7.12502
rthumb 16.7059 -86.4246
lclavicle -3.27995e-015 -2.78299e-015
lhumerus -37.4642 -23.1064 84.6512
lradius 60.7014
lwrist 6.12386
lhand -29.2395 -18.9734
lfingers 7.12502
lthumb -2.583 10.9907
rfemur -30.474 5.51487 14.5575
rtibia 24.6734
rfoot 25.33 -7.85668
rtoes -27.3169
lfemur -31.9559 -0.764835 -20.8025
ltibia 25.6407
lfoot 26.0117 13.6737
ltoes -31.4547
323
root 9.10941 22.463 27.6555 -154.23 2.97046 177.839
lowerback -18.2409 -2.00691 -3.70843
upperback -2.03982 -1.44025 -0.943558
thorax 8.1008 -0.632828 0.754748
lowerneck -2.37989 -1.68846 1.17158
upperneck -4.92942 -2.05777 1.33264
head -1.11126 -0.991127 0.21933
rclavicle 2.0276e-014 -1.98785e-015
rhumerus -44.9175 17.6288 -89.9557
rradius 62.5165
rwrist -12.0737
rhand -9.27374 -57.409
rfingers 7.12502
rthumb 16.6829 -86.7121
lclavicle 2.0276e-014 -1.98785e-015
lhumerus -37.3511 -22.4652 84.6606
lradius 60.2776
lwrist 6.59506
lhand -29.3586 -17.9772
lfingers 7.12502
lthumb -2.69802 11.9855
rfemur -30.4144 5.98953 14.4668
rtibia 24.8796
rfoot 25.4625 -6.75665
rtoes -27.4464
lfemur -31.7426 -1.10609 -20.759
ltibia 25.7411
lfoot 25.8143 13.4432
ltoes -31.1407
324
root 9.1122 22.6314 27.5966 -154.541 2.7289 177.697
lowerback -17.8479 -2.16363 -3.85345
upperback -1.91814 -1.65505 -0.950073
thorax 8.03053 -0.750323 0.782128
lowerneck -2.15858 -1.6809 1.38691
upperneck -4.98151 -2.05323 1.22926
head -1.16825 -0.994516 0.154866
rclavicle -9.44227e-015 -5.96354e-015
rhumerus -44.8939 17.9675 -90.1318
rradius 61.4179
rwrist -11.6301
rhand -10.4878 -54.7816
rfingers 7.12502
rthumb 15.5139 -84.1792
lclavicle -9.44227e-015 -5.96354e-015
lhumerus -37.4983 -22.1593 84.7088
lradius 59.67
lwrist 7.20418
lhand -29.5128 -17.2492
lfingers 7.12502
lthumb -2.84691 12.7115
rfemur -30.4611 6.38158 14.2384
rtibia 24.8887
rfoot 25.2428 -6.57222
rtoes -27.2119
lfemur -31.9481 -1.65707 -20.8046
ltibia 26.1477
lfoot 26.2077 11.8533
ltoes -33.3287
325
root 9.11131 22.7835 27.5265 -154.583 2.66113 177.562
lowerback -17.7819 -2.25737 -3.931
upperback -1.92871 -1.76123 -0.988968
thorax 7.98882 -0.801452 0.759887
lowerneck -1.96518 -1.66523 1.35588
upperneck -4.98692 -2.03588 1.19256
head -1.2026 -0.988288 0.150481
rclavicle -1.08338e-014 1.19271e-014
rhumerus -45.0165 18.2925 -90.2897
rradius 60.3372
rwrist -11.0096
rhand -9.1481 -57.0564
rfingers 7.12502
rthumb 16.8039 -86.3493
lclavicle -1.08338e-014 1.19271e-014
lhumerus -37.8554 -21.9261 84.8721
lradius 59.0323
lwrist 7.62038
lhand -29.4356 -17.0255
lfingers 7.12502
lthumb -2.7724 12.9362
rfemur -30.6719 6.76219 13.9092
rtibia 24.6204
rfoot 24.3623 -6.9694
rtoes -26.3241
lfemur -32.2345 -2.13626 -20.8837
ltibia 26.2612
lfoot 26.2278 10.6506
ltoes -36.8106
326
root 9.11469 22.9334 27.4615 -154.619 2.34895 177.541
lowerback -17.6613 -2.42944 -3.94889
upperback -1.91553 -2.00365 -0.906073
thorax 7.95118 -0.922191 0.802275
lowerneck -1.82386 -1.62484 1.28138
upperneck -5.00442 -1.98443 1.15629
head -1.2315 -0.963373 0.152738
rclavicle 1.58034e-014 -3.97569e-015
rhumerus -45.144 18.8015 -90.3989
rradius 59.4056
rwrist -10.5717
rhand -8.60171 -58.9605
rfingers 7.12502
rthumb 17.3298 -88.2079
lclavicle 1.58034e-014 -3.97569e-015
lhumerus -38.0607 -21.6755 85.0601
lradius 58.3762
lwrist 8.10864
lhand -28.9971 -16.5884
lfingers 7.12502
lthumb -2.34891 13.3784
rfemur -30.7663 7.05699 13.7842
rtibia 24.0137
rfoot 24.0875 -7.64496
rtoes -24.35
lfemur -32.5271 -2.72162 -20.7077
ltibia 26.2062
lfoot 26.2973 9.67851
ltoes -39.1509
327
root 9.11356 23.0714 27.3886 -154.498 2.13649 177.73
lowerback -17.8156 -2.50353 -3.70693
upperback -1.93337 -2.14904 -0.804494
thorax 8.01759 -0.985951 0.734708
lowerneck -1.63385 -1.59057 1.2442
upperneck -5.02911 -1.94135 1.11951
head -1.27143 -0.943742 0.149176
rclavicle 6.95746e-015 1.78906e-014
rhumerus -45.309 19.2103 -90.526
rradius 58.5033
rwrist -10.121
rhand -9.1672 -56.7429
rfingers 7.12502
rthumb 16.7855 -86.0374
lclavicle 6.95746e-015 1.78906e-014
lhumerus -38.1388 -21.5749 85.2975
lradius 57.4761
lwrist 8.2839
lhand -29.0242 -16.3468
lfingers 7.12502
lthumb -2.37505 13.6197
rfemur -31.0751 7.38983 13.8234
rtibia 23.3473
rfoot 23.6102 -7.98834
rtoes -23.9256
lfemur -32.9712 -3.34761 -20.28
ltibia 26.0856
lfoot 25.8322 9.15126
ltoes -42.4272
328
root 9.11503 23.1995 27.3199 -154.268 1.89879 177.862
lowerback -17.9845 -2.58058 -3.54714
upperback -2.01245 -2.27255 -0.723458
thorax 8.02642 -1.03606 0.697865
lowerneck -1.496 -1.57581 1.26452
upperneck -5.03656 -1.92474 1.07725
head -1.29785 -0.937417 0.134017
rclavicle 1.12313e-014 7.55382e-015
rhumerus -45.4278 19.4555 -90.6483
rradius 57.4357
rwrist -9.68228
rhand -9.67339 -55.6863
rfingers 7.12502
rthumb 16.2981 -85.0214
lclavicle 1.12313e-014 7.55382e-015
lhumerus -38.2083 -21.5726 85.5816
lradius 56.5403
lwrist 8.19497
lhand -28.9689 -16.2773
lfingers 7.12502
lthumb -2.32168 13.6898
rfemur -31.4835 7.57713 13.8867
rtibia 22.609
rfoot 23.0113 -8.20159
rtoes -24.1645
lfemur -33.5206 -3.62591 -20.0043
ltibia 25.7205
lfoot 25.8022 8.16264
ltoes -47.2592
329
root 9.11575 23.32 27.242 -154.268 1.73924 177.924
lowerback -18.0191 -2.62408 -3.50428
upperback -2.014 -2.34072 -0.679411
thorax 8.04664 -1.06831 0.702916
lowerneck -1.48007 -1.56236 1.38979
upperneck -5.02402 -1.91103 0.995055
head -1.29879 -0.932078 0.0881409
rclavicle -1.13307e-014 -1.98785e-015
rhumerus -45.6761 19.6553 -90.8018
rradius 56.5181
rwrist -9.48414
rhand -10.3602 -53.834
rfingers 7.12502
rthumb 15.6368 -83.2221
lclavicle -1.13307e-014 -1.98785e-015
lhumerus -38.3915 -21.7726 85.8658
lradius 55.6718
lwrist 8.00758
lhand -28.9387 -16.4734
lfingers 7.12502
lthumb -2.29249 13.494
rfemur -31.51 7.65272 13.9241
rtibia 21.7163
rfoot 22.5203 -8.30266
rtoes -26.0912
lfemur -33.7112 -3.53783 -19.9682
ltibia 25.081
lfoot 26.7059 6.74199
ltoes -50.2687
